<svg width="40" height="33" viewBox="0 0 40 33" fill="none" xmlns="http://www.w3.org/2000/svg">
<g id="Frame">
<path id="Vector" d="M32.7832 4.981C32.773 4.96121 32.756 4.9457 32.7354 4.93725C30.3527 3.84404 27.8383 3.06449 25.2551 2.61812C25.2316 2.61376 25.2073 2.61691 25.1858 2.62712C25.1642 2.63733 25.1464 2.65408 25.1349 2.675C24.7925 3.29643 24.4817 3.93474 24.2036 4.5875C21.419 4.1648 18.5866 4.1648 15.802 4.5875C15.5221 3.93308 15.2063 3.29461 14.8561 2.675C14.844 2.65454 14.8261 2.63817 14.8047 2.62803C14.7832 2.61788 14.7592 2.61443 14.7358 2.61812C12.1523 3.06356 9.63769 3.84316 7.2553 4.93731C7.23491 4.94596 7.2177 4.96072 7.20605 4.97956C2.44174 12.0944 1.13662 19.0344 1.77687 25.8884C1.77867 25.9052 1.78383 25.9214 1.79204 25.9362C1.80026 25.951 1.81135 25.9639 1.82468 25.9743C4.59889 28.0284 7.70189 29.5963 11.0012 30.6111C11.0245 30.6181 11.0493 30.6178 11.0723 30.6102C11.0954 30.6027 11.1156 30.5882 11.1302 30.5689C11.8388 29.6047 12.4667 28.5837 13.0075 27.5162C13.0149 27.5016 13.0192 27.4855 13.0199 27.4691C13.0207 27.4527 13.018 27.4363 13.012 27.4211C13.006 27.4058 12.9968 27.3919 12.985 27.3805C12.9733 27.369 12.9592 27.3601 12.9438 27.3545C11.9537 26.9756 10.9951 26.5189 10.0771 25.9887C10.0604 25.9789 10.0464 25.9651 10.0363 25.9486C10.0262 25.9321 10.0203 25.9134 10.0192 25.8941C10.018 25.8748 10.0216 25.8555 10.0297 25.8379C10.0378 25.8203 10.0501 25.805 10.0655 25.7933C10.2581 25.649 10.4509 25.4989 10.6348 25.3472C10.6511 25.3338 10.6709 25.3252 10.6919 25.3223C10.7129 25.3195 10.7342 25.3226 10.7536 25.3312C16.7679 28.0761 23.2792 28.0761 29.2223 25.3312C29.2417 25.322 29.2633 25.3185 29.2845 25.3211C29.3058 25.3237 29.3259 25.3322 29.3426 25.3458C29.5266 25.4974 29.7192 25.649 29.9133 25.7933C29.9288 25.8049 29.9412 25.8201 29.9494 25.8376C29.9576 25.8551 29.9614 25.8744 29.9604 25.8937C29.9594 25.913 29.9536 25.9318 29.9437 25.9483C29.9337 25.9649 29.9198 25.9788 29.9032 25.9887C28.9872 26.5234 28.0278 26.9798 27.0351 27.3531C27.0196 27.3589 27.0056 27.368 26.994 27.3796C26.9823 27.3913 26.9732 27.4053 26.9673 27.4207C26.9614 27.4361 26.9588 27.4526 26.9597 27.469C26.9606 27.4855 26.965 27.5016 26.9726 27.5162C27.5224 28.5777 28.1494 29.5975 28.8484 30.5672C28.8626 30.5871 28.8827 30.602 28.9058 30.6099C28.929 30.6177 28.954 30.6181 28.9774 30.6109C32.2826 29.5996 35.3911 28.0315 38.1687 25.9743C38.1823 25.9644 38.1935 25.9518 38.2018 25.9372C38.21 25.9227 38.2151 25.9065 38.2166 25.8898C38.9831 17.9659 36.9333 11.0828 32.7832 4.981ZM13.9057 21.715C12.0949 21.715 10.6029 20.0533 10.6029 18.0126C10.6029 15.9718 12.066 14.31 13.9057 14.31C15.7597 14.31 17.2373 15.9862 17.2084 18.0124C17.2084 20.0533 15.7452 21.715 13.9057 21.715ZM26.1169 21.715C24.3062 21.715 22.8142 20.0533 22.8142 18.0126C22.8142 15.9718 24.2773 14.31 26.1169 14.31C27.9711 14.31 29.4486 15.9862 29.4197 18.0124C29.4197 20.0533 27.9711 21.715 26.1169 21.715Z" fill="white"/>
</g>
</svg>
