<svg width="29" height="15" viewBox="0 0 29 15" fill="none" xmlns="http://www.w3.org/2000/svg">
<path d="M20.0001 0.616111C19.9063 0.709074 19.8319 0.819675 19.7812 0.941534C19.7304 1.06339 19.7043 1.1941 19.7043 1.32611C19.7043 1.45812 19.7304 1.58883 19.7812 1.71069C19.8319 1.83255 19.9063 1.94315 20.0001 2.03611L24.6001 6.63611H1.06006C0.794842 6.63611 0.540488 6.74147 0.352952 6.929C0.165415 7.11654 0.0600586 7.37089 0.0600586 7.63611C0.0600586 7.90133 0.165415 8.15568 0.352952 8.34322C0.540488 8.53075 0.794842 8.63611 1.06006 8.63611H24.5801L20.0001 13.2061C19.8138 13.3935 19.7093 13.6469 19.7093 13.9111C19.7093 14.1753 19.8138 14.4287 20.0001 14.6161C20.1874 14.8024 20.4409 14.9069 20.7051 14.9069C20.9692 14.9069 21.2227 14.8024 21.4101 14.6161L27.7701 8.25611C27.8557 8.17398 27.9238 8.07539 27.9703 7.96627C28.0168 7.85714 28.0408 7.73974 28.0408 7.62111C28.0408 7.50248 28.0168 7.38508 27.9703 7.27595C27.9238 7.16683 27.8557 7.06824 27.7701 6.98611L21.4201 0.616111C21.3271 0.522382 21.2165 0.447988 21.0946 0.39722C20.9728 0.346451 20.8421 0.320313 20.7101 0.320312C20.578 0.320313 20.4473 0.346451 20.3255 0.39722C20.2036 0.447988 20.093 0.522382 20.0001 0.616111Z" fill="white"/>
</svg>
