<svg width="113" height="113" viewBox="0 0 113 113" fill="none" xmlns="http://www.w3.org/2000/svg">
<g id="svg8" opacity="0.04">
<g id="g2051">
<path id="rect1945" d="M6.87402 60.83V63.1553V104.754H30.5384V98.8857L30.639 98.922C36.8246 100.979 45.6707 102.808 54.4133 105.934L55.0633 106.154L55.7041 106.008C58.4516 105.368 65.8546 103.085 74.6814 100.249C83.5082 97.4138 93.5777 94.064 101.065 91.4795C104.648 90.2386 106.574 86.2312 105.257 82.6726C103.874 79.032 99.86 77.3945 96.4416 78.4437C93.5946 79.3162 80.2325 83.4436 71.459 86.0328C71.5417 83.5304 72.1996 80.8242 70.1682 79.2308L70.0584 79.1211L69.9211 79.0657C60.0596 73.1826 59.224 72.4202 45.3595 65.0511L44.7095 64.7305L43.9955 64.8038C39.2277 65.3152 31.1275 66.6561 30.5384 66.7538V60.8305L6.87402 60.83ZM11.5611 65.5176H25.8788V100.067H11.5611V65.5176ZM43.785 69.5636C56.4491 76.3085 57.9036 77.3383 67.2663 82.9204C68.7848 84.1119 69.1892 85.5754 68.2733 86.8931C67.7815 87.6007 67.2665 87.881 66.5522 88.0001C65.838 88.1285 64.8518 87.9636 63.7235 87.4687C59.5071 85.5199 57.2131 84.2773 52.555 81.6646L50.5135 80.5207L48.2249 84.6036L50.2664 85.7475C54.9545 88.3769 57.4306 89.7479 61.7919 91.762H61.8284C63.6102 92.5557 65.4905 92.9352 67.3394 92.6217C68.1067 92.4934 68.6079 91.7107 69.3076 91.3313L69.3809 91.5421L71.6329 90.9005C80.4179 88.328 94.876 83.8527 97.8057 82.9545V82.9176C98.913 82.5785 100.409 83.1375 100.854 84.3088C101.269 85.4837 100.728 86.621 99.5267 87.0369C92.0905 89.604 82.0409 92.9446 73.2441 95.7705C64.6679 98.5254 57.4105 100.723 55.1274 101.281C46.3288 98.2261 37.5852 96.2994 32.1129 94.4794L30.5384 93.9754V71.4923L30.932 71.4369C30.932 71.4369 39.0221 70.1224 43.785 69.5636Z" fill="black"/>
<path id="circle2013" d="M75.6758 7.27673C59.6774 7.27673 46.6406 20.3129 46.6406 36.3107C46.6406 52.3086 59.6774 65.309 75.6758 65.309C91.6742 65.309 104.675 52.3086 104.675 36.3107C104.675 20.3129 91.6742 7.27673 75.6758 7.27673ZM75.6758 11.9666C89.141 11.9666 99.9851 22.8459 99.9851 36.3107C99.9851 49.7756 89.141 60.6191 75.6758 60.6191C62.2105 60.6191 51.3306 49.7756 51.3306 36.3107C51.3306 22.8459 62.2105 11.9666 75.6758 11.9666Z" fill="black"/>
<path id="path2015" d="M73.2996 20.6326V23.0038V24.6976H66.9189V38.6395H79.7169V43.208H69.2808H66.9189V47.895H69.2808H73.2996V49.5793V51.941H77.9867V49.5793V47.895H84.404V33.9525H71.6061V29.3846H82.0422H84.404V24.6976H82.0422H77.9867V23.0038V20.6326H73.2996Z" fill="black"/>
</g>
</g>
</svg>
