<svg width="113" height="114" viewBox="0 0 113 114" fill="none" xmlns="http://www.w3.org/2000/svg">
<g id="svg8" opacity="0.04">
<g id="g2156">
<path id="path1572" d="M86.6276 26.5173L69.2341 27.7165L69.5636 32.3853L78.3153 31.7903L58.9444 51.4816L46.3753 38.7111L26.3086 59.1165L29.65 62.4029L46.3753 45.403L58.9444 58.1735L81.5194 35.2141L81.0891 44.1305L85.7762 44.3502L86.6276 26.5173Z" fill="black"/>
<path id="rect2096" d="M7.02832 13.9481V86.3969H46.8504C45.7736 89.5289 44.6938 92.6599 43.6097 95.7894H34.5193V100.476H78.4243V95.7894H69.3339C68.2498 92.6599 67.17 89.5289 66.0932 86.3969H105.915V13.9481H7.02832ZM11.7154 18.6352H101.228V68.0421H11.7154V18.6352ZM11.7154 72.7292H101.228V81.7097H11.7154V72.7292ZM51.8121 86.3969H61.1314C62.2071 89.5293 63.2893 92.6594 64.3721 95.7894H48.5715C49.6543 92.6594 50.7365 89.5293 51.8121 86.3969Z" fill="black"/>
</g>
</g>
</svg>
