<svg width="114" height="114" viewBox="0 0 114 114" fill="none" xmlns="http://www.w3.org/2000/svg">
<g id="Layer_1" opacity="0.04">
<path id="Vector" d="M97.131 33.333H89.9597V9.89743C89.9609 9.12967 89.7734 8.37338 89.4138 7.69504C89.0542 7.0167 88.5335 6.43708 87.8974 6.00713C87.264 5.57961 86.5358 5.31341 85.776 5.23171C85.0163 5.15002 84.2481 5.25531 83.5384 5.53842L13.2318 33.6611C12.6 33.9409 12.0273 34.3386 11.5444 34.8328C9.7528 35.8397 8.25882 37.3018 7.21357 39.0714C6.16833 40.8409 5.60888 42.855 5.5918 44.9101V96.7495C5.60414 99.8162 6.82783 102.754 8.9963 104.922C11.1648 107.091 14.1023 108.314 17.1689 108.327H97.131C100.198 108.314 103.135 107.091 105.304 104.922C107.472 102.754 108.696 99.8162 108.708 96.7495V44.9101C108.696 41.8435 107.472 38.9059 105.304 36.7375C103.135 34.569 100.198 33.3453 97.131 33.333ZM80.5855 33.333H39.2921L80.5855 16.8343V33.333ZM99.3339 80.204H80.5855C78.0993 80.204 75.7149 79.2164 73.9569 77.4584C72.1989 75.7004 71.2113 73.316 71.2113 70.8298C71.2113 68.3436 72.1989 65.9592 73.9569 64.2012C75.7149 62.4432 78.0993 61.4556 80.5855 61.4556H99.3339V80.204ZM80.5855 52.0814C75.6131 52.0814 70.8444 54.0567 67.3284 57.5727C63.8123 61.0887 61.8371 65.8574 61.8371 70.8298C61.8371 75.8022 63.8123 80.5709 67.3284 84.087C70.8444 87.603 75.6131 89.5782 80.5855 89.5782H99.3339V96.7495C99.3339 97.3338 99.1018 97.8941 98.6887 98.3072C98.2756 98.7204 97.7152 98.9525 97.131 98.9525H17.1689C16.5847 98.9525 16.0244 98.7204 15.6112 98.3072C15.1981 97.8941 14.966 97.3338 14.966 96.7495V44.9101C14.966 44.6208 15.023 44.3344 15.1337 44.0671C15.2444 43.7998 15.4067 43.557 15.6112 43.3524C15.8158 43.1478 16.0586 42.9856 16.3259 42.8749C16.5932 42.7642 16.8797 42.7072 17.1689 42.7072H97.131C97.4203 42.7072 97.7067 42.7642 97.974 42.8749C98.2413 42.9856 98.4841 43.1478 98.6887 43.3524C98.8932 43.557 99.0555 43.7998 99.1662 44.0671C99.2769 44.3344 99.3339 44.6208 99.3339 44.9101V52.0814H80.5855Z" fill="black"/>
<path id="Vector_2" d="M85.273 75.5169C87.8617 75.5169 89.9601 73.4185 89.9601 70.8298C89.9601 68.2412 87.8617 66.1427 85.273 66.1427C82.6844 66.1427 80.5859 68.2412 80.5859 70.8298C80.5859 73.4185 82.6844 75.5169 85.273 75.5169Z" fill="black"/>
</g>
</svg>
