<svg width="113" height="113" viewBox="0 0 113 113" fill="none" xmlns="http://www.w3.org/2000/svg">
<g id="Frame" opacity="0.04" clip-path="url(#clip0_8_260)">
<g id="Group">
<path id="Vector" d="M66.0756 9.83133C74.6529 9.82724 82.9723 12.7639 89.6464 18.1515C96.3204 23.5392 100.946 31.0521 102.751 39.4373C104.556 47.8225 103.431 56.5731 99.5652 64.2296C95.6991 71.8861 89.3248 77.9858 81.5056 81.5112C79.0062 87.0369 75.2038 91.8739 70.4246 95.6074C65.6454 99.3409 60.0319 101.859 54.0655 102.947C48.0992 104.035 41.9581 103.659 36.1689 101.852C30.3797 100.045 25.1152 96.8606 20.8268 92.5723C16.5385 88.2839 13.3543 83.0194 11.5473 77.2302C9.74033 71.441 9.36453 65.2999 10.4521 59.3336C11.5397 53.3672 14.0583 47.7537 17.7917 42.9745C21.5252 38.1953 26.3622 34.3929 31.8879 31.8935C34.8602 25.317 39.6665 19.7375 45.7305 15.8243C51.7945 11.9111 58.8586 9.83022 66.0756 9.83133ZM52.0143 42.6411H42.6401V47.3282C39.594 47.3208 36.6647 48.4998 34.4732 50.6154C32.2816 52.7311 31.0001 55.6169 30.9001 58.6614C30.8002 61.7058 31.8897 64.6696 33.9377 66.9244C35.9858 69.1792 38.8314 70.5479 41.8714 70.7403L42.6401 70.7637H52.0143L52.4361 70.8012C52.9765 70.899 53.4653 71.1835 53.8173 71.605C54.1693 72.0265 54.3621 72.5581 54.3621 73.1073C54.3621 73.6564 54.1693 74.1881 53.8173 74.6096C53.4653 75.031 52.9765 75.3155 52.4361 75.4133L52.0143 75.4508H33.2659V84.825H42.6401V89.5121H52.0143V84.825C55.0604 84.8324 57.9896 83.6534 60.1812 81.5378C62.3727 79.4222 63.6543 76.5363 63.7543 73.4918C63.8542 70.4474 62.7647 67.4836 60.7166 65.2288C58.6686 62.974 55.823 61.6054 52.783 61.4129L52.0143 61.3895H42.6401L42.2182 61.352C41.6779 61.2542 41.1891 60.9697 40.8371 60.5482C40.4851 60.1268 40.2922 59.5951 40.2922 59.0459C40.2922 58.4968 40.4851 57.9651 40.8371 57.5437C41.1891 57.1222 41.6779 56.8377 42.2182 56.7399L42.6401 56.7024H61.3885V47.3282H52.0143V42.6411ZM66.0756 19.2055C62.1042 19.2009 58.177 20.0396 54.5539 21.6661C50.9308 23.2926 47.6943 25.6699 45.0586 28.6407C50.3563 28.3191 55.6619 29.1258 60.6245 31.0074C65.5872 32.8891 70.0939 35.8028 73.8466 39.5559C77.5993 43.3091 80.5125 47.8161 82.3935 52.779C84.2746 57.7419 85.0806 63.0475 84.7584 68.3452C89.02 64.5562 92.0291 59.5613 93.3865 54.0228C94.744 48.4844 94.3857 42.6641 92.3592 37.334C90.3327 32.0038 86.7337 27.4157 82.0396 24.178C77.3455 20.9404 71.778 19.2062 66.0756 19.2055Z" fill="black"/>
</g>
</g>
<defs>
<clipPath id="clip0_8_260">
<rect width="112.491" height="112.491" fill="white" transform="translate(0.456543 0.4571)"/>
</clipPath>
</defs>
</svg>
