<svg xmlns="http://www.w3.org/2000/svg" version="1.1" xmlns:xlink="http://www.w3.org/1999/xlink" xmlns:svgjs="http://svgjs.dev/svgjs" width="1000" height="505" viewBox="0 0 1000 505"><g transform="matrix(1,0,0,1,-0.6060606060606233,-0.2600798691703403)"><svg viewBox="0 0 396 200" data-background-color="#ffffff" preserveAspectRatio="xMidYMid meet" height="505" width="1000" xmlns="http://www.w3.org/2000/svg" xmlns:xlink="http://www.w3.org/1999/xlink"><g id="tight-bounds" transform="matrix(1,0,0,1,0.2400000000000091,0.10300192838428757)"><svg viewBox="0 0 395.52 199.79399614323142" height="199.79399614323142" width="395.52"><g><svg viewBox="0 0 395.52 199.79399614323142" height="199.79399614323142" width="395.52"><g><svg viewBox="0 0 395.52 199.79399614323142" height="199.79399614323142" width="395.52"><g id="textblocktransform"><svg viewBox="0 0 395.52 199.79399614323142" height="199.79399614323142" width="395.52" id="textblock"><g><rect width="395.52" height="141.51606288209607" fill="none" stroke-width="9.018103199999999" stroke="#000000" data-fill-palette-color="none" data-stroke-palette-color="tertiary"></rect><rect width="395.52" height="58.277933261135374" y="141.51606288209607" fill="#000000" data-fill-palette-color="tertiary"></rect></g><g><svg viewBox="0 0 395.52 141.51606288209607" height="141.51606288209607" width="395.52"><g transform="matrix(1,0,0,1,23.607599999999998,23.607599999999998)"><svg width="348.3048" viewBox="4 -37.5 183.18 49.6" height="94.30086288209607" data-palette-color="#000000"><path d="M25.8 0L4 0 4-35 25.35-35 25.35-30.7 8.75-30.7 8.75-20.45 21.95-20.45 21.95-16.15 8.75-16.15 8.75-4.3 25.8-4.3 25.8 0ZM33.3 0L28.25 0 36.8-12.2 28.45-24.5 33.5-24.5 39.65-14.8 45.3-24.5 50.55-24.5 42.5-12.6 50.85 0 45.8 0 39.6-9.65 33.3 0ZM58.95 12.1L54.45 12.1 54.45-24.5 57.95-24.5 58.75-18.9 57.5-19.8Q59.05-22.2 61.32-23.6 63.6-25 66.9-25L66.9-25Q70.25-25 72.65-23.3 75.05-21.6 76.32-18.71 77.6-15.83 77.6-12.25L77.6-12.25Q77.6-8.68 76.4-5.79 75.2-2.9 72.82-1.2 70.45 0.5 66.9 0.5L66.9 0.5Q63.97 0.5 61.61-0.71 59.25-1.93 58.2-4.35L58.2-4.35 58.95-5.25 58.95 12.1ZM66.05-3.5L66.05-3.5Q69.32-3.5 71.16-5.81 73-8.13 73-12.25L73-12.25Q73-16.38 71.16-18.69 69.32-21 66.05-21L66.05-21Q64.02-21 62.36-20.04 60.7-19.07 59.7-17.14 58.7-15.2 58.7-12.25L58.7-12.25Q58.7-9.18 59.7-7.25 60.7-5.33 62.36-4.41 64.02-3.5 66.05-3.5ZM94.04 0.5L94.04 0.5Q89.72 0.5 86.77-1.28 83.82-3.05 82.31-5.99 80.79-8.93 80.79-12.45L80.79-12.45Q80.79-15.88 82.21-18.73 83.62-21.58 86.31-23.29 88.99-25 92.79-25L92.79-25Q95.84-25 98.23-23.79 100.62-22.58 101.98-20.26 103.34-17.95 103.34-14.65L103.34-14.65Q103.34-14.13 103.31-13.51 103.27-12.9 103.14-12.25L103.14-12.25 85.39-12.25Q85.72-8.85 87.02-6.95 88.32-5.05 90.29-4.28 92.27-3.5 94.59-3.5L94.59-3.5Q96.29-3.5 98.14-3.85 99.99-4.2 101.64-4.95L101.64-4.95 102.24-1.4Q100.82-0.78 98.77-0.14 96.72 0.5 94.04 0.5ZM85.79-15.35L85.79-15.35 98.69-15.35Q98.69-17.07 98.04-18.35 97.39-19.63 96.07-20.31 94.74-21 92.69-21L92.69-21Q89.69-21 88.08-19.51 86.47-18.03 85.79-15.35ZM112.39 0L107.89 0 107.89-24.5 111.39-24.5 112.29-19.8 110.54-20.55Q113.02-23.3 115.38-24.15 117.74-25 119.99-25L119.99-25Q125.37-25 127.68-21.9 129.99-18.8 129.99-13.5L129.99-13.5 129.99 0 125.49 0 125.49-13.5Q125.49-17.4 124.04-19.2 122.59-21 119.09-21L119.09-21Q116.62-21 114.55-19.91 112.49-18.82 111.84-16.45L111.84-16.45 112.39-19.2 112.39 0ZM145.54 0.5L145.54 0.5Q142.41 0.5 139.89-1.2 137.36-2.9 135.88-5.78 134.39-8.65 134.39-12.2L134.39-12.2Q134.39-15.58 135.75-18.5 137.11-21.43 139.61-23.21 142.11-25 145.54-25L145.54-25Q147.99-25 150.28-23.94 152.56-22.88 153.99-20.4L153.99-20.4 153.04-19.75 153.04-37.5 157.54-37.5 157.54 0 153.54 0 152.69-5.2 153.84-4.4Q152.76-1.98 150.46-0.74 148.16 0.5 145.54 0.5ZM146.34-3.5L146.34-3.5Q148.04-3.5 149.7-4.38 151.36-5.25 152.45-7.16 153.54-9.08 153.54-12.2L153.54-12.2Q153.54-15.1 152.45-17.06 151.36-19.03 149.7-20.01 148.04-21 146.34-21L146.34-21Q144.04-21 142.39-19.85 140.74-18.7 139.86-16.71 138.99-14.73 138.99-12.2L138.99-12.2Q138.99-9.83 139.86-7.85 140.74-5.88 142.39-4.69 144.04-3.5 146.34-3.5ZM168.09 0L163.59 0 163.59-24.5 168.09-24.5 168.09 0ZM168.09-30L163.59-30 163.59-35 168.09-35 168.09-30ZM186.68 0.5L182.63 0.5Q180.31 0.5 178.91-0.35 177.51-1.2 176.87-2.54 176.23-3.88 176.23-5.35L176.23-5.35 176.23-21 172.03-21 172.43-24.5 176.23-24.5 176.23-30.55 180.73-31 180.73-24.5 187.18-24.5 187.18-21 180.73-21 180.73-8.1Q180.73-5.75 181.01-4.7 181.28-3.65 182.37-3.38 183.46-3.1 185.88-3.1L185.88-3.1 187.03-3.1 186.68 0.5Z" opacity="1" transform="matrix(1,0,0,1,0,0)" fill="#000000" class="wordmark-text-0" data-fill-palette-color="primary" id="text-0"></path></svg></g></svg></g></svg></g></svg></g></svg></g><defs></defs></svg><rect width="395.52" height="199.79399614323142" fill="none" stroke="none" visibility="hidden"></rect></g></svg></g></svg>