<svg width="40" height="41" viewBox="0 0 40 41" fill="none" xmlns="http://www.w3.org/2000/svg">
<g id="Frame" clip-path="url(#clip0_171_168)">
<path id="Vector" fill-rule="evenodd" clip-rule="evenodd" d="M25.1972 40.5317C38.5444 40.1461 39.858 37.3365 39.858 21.3861C39.858 3.78604 38.258 2.18604 20.658 2.18604C3.058 2.18604 1.45801 3.78604 1.45801 21.3861C1.45801 37.3781 2.7796 40.1605 16.2228 40.5349C16.3396 40.3893 16.3828 40.2069 16.3828 40.0213C16.3828 39.6213 16.3668 35.5157 16.3588 34.1029C11.4996 35.1253 10.474 31.8325 10.474 31.8325C9.6788 29.8773 8.5332 29.3557 8.5332 29.3557C6.9476 28.3061 8.6532 28.3269 8.6532 28.3269C10.4068 28.4469 11.33 30.0725 11.33 30.0725C12.8884 32.6597 15.4196 31.9125 16.4148 31.4789C16.5732 30.3861 17.0244 29.6389 17.5236 29.2165C13.6436 28.7893 9.5652 27.3365 9.5652 20.8485C9.5652 19.0005 10.2468 17.4901 11.3636 16.306C11.1828 15.8772 10.5844 14.1556 11.5348 11.826C11.5348 11.826 13.002 11.37 16.3396 13.5604C17.7332 13.1844 19.2276 12.9972 20.714 12.9908C22.1972 12.9972 23.6916 13.1844 25.0884 13.5604C28.4244 11.37 29.8884 11.826 29.8884 11.826C30.842 14.1556 30.242 15.8772 30.0612 16.306C31.1812 17.4901 31.858 19.0005 31.858 20.8485C31.858 27.3525 27.7732 28.7845 23.8804 29.2021C24.5076 29.7253 25.066 30.7589 25.066 32.3381C25.066 33.8517 25.0564 36.5285 25.05 38.3029C25.0468 39.1813 25.0452 39.8373 25.0452 40.0213C25.0452 40.1957 25.0916 40.3797 25.1972 40.5317Z" fill="white"/>
</g>
<defs>
<clipPath id="clip0_171_168">
<rect width="40" height="40" fill="white" transform="translate(0 0.616211)"/>
</clipPath>
</defs>
</svg>
