<svg width="1268" height="869" viewBox="0 0 1268 869" fill="none" xmlns="http://www.w3.org/2000/svg">
<g opacity="0.6">
<g opacity="0.04">
<path d="M316.355 194.823L314.799 196.141C314.799 196.141 295.776 211.991 295.776 232.595C295.776 235.906 296.085 240.069 296.527 244.322L295.95 244.67L282.969 252.561V266.439H303.374H304.894V275.172H307.97C307.544 276.704 307.301 278.354 307.301 280.107C307.301 287.756 314.982 292.74 314.982 292.74L316.355 293.747L317.774 292.74C317.774 292.74 325.446 287.756 325.446 280.107C325.446 278.354 325.194 276.704 324.759 275.172H327.817V266.228H330.966V266.265H333.3H349.751V252.561L336.77 244.669L336.193 244.322C336.635 240.069 336.944 235.906 336.944 232.595C336.944 211.991 317.911 196.141 317.911 196.141L316.355 194.823ZM316.355 201.396C318.925 203.772 332.202 216.464 332.202 232.595C332.202 236.985 331.76 243.204 330.929 249.018C330.177 254.279 329.019 258.766 327.89 261.569H327.817H304.894H304.866C303.737 258.766 302.57 254.279 301.818 249.018C300.986 243.204 300.509 236.985 300.509 232.595C300.509 216.464 313.786 203.772 316.355 201.396ZM335.625 249.412L345.045 255.17V261.605H333.3H333.09C334.164 258.259 334.966 254.1 335.598 249.677C335.611 249.589 335.613 249.5 335.625 249.412ZM297.085 249.439C297.096 249.519 297.101 249.598 297.113 249.677C297.755 254.172 298.566 258.407 299.667 261.779H287.711V255.17L297.085 249.439ZM309.636 266.229H323.075V270.549H309.636V266.229ZM313.06 275.173H319.678C320.266 276.56 320.713 278.187 320.713 280.107C320.713 283.29 317.951 285.345 316.355 286.826C314.757 285.341 312.007 283.284 312.007 280.107C312.007 278.187 312.463 276.559 313.06 275.173Z" fill="black"/>
<path d="M313.985 220.73V223.065V224.319H308.117V237.154H319.899V240.733H310.488H308.117V245.393H310.488H313.985V246.647V248.981H318.727V246.647V245.393H324.604V232.531H312.859V228.979H322.233H324.604V224.319H322.233H318.727V223.065V220.73H313.985Z" fill="black"/>
<path d="M280.458 272.562V274.893V284.319V286.65H285.198V284.319V274.893V272.562H280.458Z" fill="black"/>
<path d="M292.448 272.562V274.893V284.319V286.65H297.152V284.319V274.893V272.562H292.448Z" fill="black"/>
<path d="M335.564 272.562V274.893V284.319V286.65H340.304V284.319V274.893V272.562H335.564Z" fill="black"/>
<path d="M347.557 272.562V274.893V284.319V286.65H352.261V284.319V274.893V272.562H347.557Z" fill="black"/>
</g>
<g opacity="0.04">
<path d="M216.311 527.47L214.755 528.788C214.755 528.788 195.732 544.638 195.732 565.241C195.732 568.553 196.041 572.715 196.483 576.968L195.906 577.316L182.925 585.207V599.086H203.33H204.85V607.819H207.926C207.501 609.351 207.257 611.001 207.257 612.753C207.257 620.403 214.938 625.387 214.938 625.387L216.311 626.394L217.73 625.387C217.73 625.387 225.402 620.403 225.402 612.753C225.402 611.001 225.15 609.351 224.715 607.819H227.773V598.875H230.922V598.912H233.256H249.707V585.207L236.726 577.316L236.149 576.968C236.591 572.716 236.9 568.552 236.9 565.241C236.9 544.638 217.868 528.788 217.868 528.788L216.311 527.47ZM216.311 534.043C218.881 536.419 232.158 549.111 232.158 565.241C232.158 569.632 231.716 575.85 230.885 581.665C230.133 586.925 228.975 591.413 227.846 594.215H227.773H204.85H204.822C203.693 591.413 202.526 586.925 201.774 581.665C200.942 575.85 200.465 569.632 200.465 565.241C200.465 549.111 213.742 536.419 216.311 534.043ZM235.582 582.058L245.001 587.816V594.252H233.256H233.046C234.12 590.906 234.922 586.747 235.554 582.324C235.567 582.235 235.569 582.147 235.582 582.058ZM197.041 582.086C197.052 582.165 197.057 582.244 197.069 582.324C197.711 586.819 198.522 591.053 199.623 594.426H187.667V587.817L197.041 582.086ZM209.592 598.875H223.031V603.196H209.592V598.875ZM213.016 607.819H219.634C220.222 609.206 220.669 610.833 220.669 612.754C220.669 615.937 217.907 617.992 216.311 619.473C214.713 617.988 211.963 615.931 211.963 612.754C211.963 610.834 212.419 609.206 213.016 607.819Z" fill="black"/>
<path d="M213.941 553.377V555.712V556.966H208.073V569.8H219.855V573.38H210.444H208.073V578.039H210.444H213.941V579.294V581.628H218.683V579.294V578.039H224.561V565.177H212.815V561.625H222.189H224.561V556.966H222.189H218.683V555.712V553.377H213.941Z" fill="black"/>
<path d="M180.414 605.209V607.539V616.966V619.296H185.154V616.966V607.539V605.209H180.414Z" fill="black"/>
<path d="M192.404 605.209V607.539V616.966V619.296H197.109V616.966V607.539V605.209H192.404Z" fill="black"/>
<path d="M235.52 605.209V607.539V616.966V619.296H240.26V616.966V607.539V605.209H235.52Z" fill="black"/>
<path d="M247.513 605.209V607.539V616.966V619.296H252.217V616.966V607.539V605.209H247.513Z" fill="black"/>
</g>
<g opacity="0.04">
<path d="M664.009 625.013L662.452 626.331C662.452 626.331 643.429 642.181 643.429 662.784C643.429 666.096 643.738 670.259 644.18 674.511L643.603 674.859L630.622 682.75V696.629H651.027H652.547V705.362H655.623C655.198 706.894 654.955 708.544 654.955 710.296C654.955 717.946 662.635 722.93 662.635 722.93L664.009 723.937L665.427 722.93C665.427 722.93 673.099 717.946 673.099 710.296C673.099 708.544 672.847 706.894 672.412 705.362H675.47V696.418H678.619V696.455H680.954H697.404V682.75L684.423 674.859L683.846 674.511C684.288 670.259 684.597 666.095 684.597 662.784C684.597 642.181 665.565 626.331 665.565 626.331L664.009 625.013ZM664.009 631.586C666.578 633.962 679.855 646.654 679.855 662.784C679.855 667.175 679.414 673.393 678.583 679.208C677.83 684.468 676.672 688.956 675.543 691.758H675.47H652.547H652.519C651.39 688.956 650.223 684.468 649.471 679.208C648.64 673.393 648.162 667.175 648.162 662.784C648.162 646.654 661.439 633.962 664.009 631.586ZM683.279 679.601L692.699 685.359V691.795H680.954H680.743C681.817 688.449 682.619 684.29 683.251 679.867C683.264 679.778 683.266 679.69 683.279 679.601ZM644.738 679.629C644.75 679.708 644.754 679.788 644.766 679.867C645.409 684.362 646.22 688.596 647.32 691.969H635.364V685.36L644.738 679.629ZM657.289 696.418H670.728V700.739H657.289V696.418ZM660.713 705.362H667.332C667.919 706.749 668.366 708.376 668.366 710.297C668.366 713.48 665.604 715.535 664.009 717.016C662.41 715.531 659.66 713.474 659.66 710.297C659.66 708.377 660.116 706.749 660.713 705.362Z" fill="black"/>
<path d="M661.639 650.92V653.255V654.509H655.771V667.343H667.552V670.923H658.142H655.771V675.583H658.142H661.639V676.837V679.171H666.381V676.837V675.583H672.258V662.72H660.513V659.168H669.887H672.258V654.509H669.887H666.381V653.255V650.92H661.639Z" fill="black"/>
<path d="M628.112 702.752V705.082V714.509V716.839H632.851V714.509V705.082V702.752H628.112Z" fill="black"/>
<path d="M640.102 702.752V705.082V714.509V716.839H644.806V714.509V705.082V702.752H640.102Z" fill="black"/>
<path d="M683.217 702.752V705.082V714.509V716.839H687.956V714.509V705.082V702.752H683.217Z" fill="black"/>
<path d="M695.21 702.752V705.082V714.509V716.839H699.915V714.509V705.082V702.752H695.21Z" fill="black"/>
</g>
<g opacity="0.04">
<path d="M1014.13 183.333H1006.96V159.897C1006.96 159.13 1006.77 158.373 1006.41 157.695C1006.05 157.017 1005.53 156.437 1004.9 156.007C1004.26 155.58 1003.54 155.313 1002.78 155.232C1002.02 155.15 1001.25 155.255 1000.54 155.538L930.232 183.661C929.6 183.941 929.027 184.339 928.544 184.833C926.753 185.84 925.259 187.302 924.214 189.071C923.168 190.841 922.609 192.855 922.592 194.91V246.75C922.604 249.816 923.828 252.754 925.996 254.922C928.165 257.091 931.102 258.314 934.169 258.327H1014.13C1017.2 258.314 1020.14 257.091 1022.3 254.922C1024.47 252.754 1025.7 249.816 1025.71 246.75V194.91C1025.7 191.843 1024.47 188.906 1022.3 186.737C1020.14 184.569 1017.2 183.345 1014.13 183.333ZM997.585 183.333H956.292L997.585 166.834V183.333ZM1016.33 230.204H997.585C995.099 230.204 992.715 229.216 990.957 227.458C989.199 225.7 988.211 223.316 988.211 220.83C988.211 218.344 989.199 215.959 990.957 214.201C992.715 212.443 995.099 211.456 997.585 211.456H1016.33V230.204ZM997.585 202.081C992.613 202.081 987.844 204.057 984.328 207.573C980.812 211.089 978.837 215.857 978.837 220.83C978.837 225.802 980.812 230.571 984.328 234.087C987.844 237.603 992.613 239.578 997.585 239.578H1016.33V246.75C1016.33 247.334 1016.1 247.894 1015.69 248.307C1015.28 248.72 1014.72 248.952 1014.13 248.952H934.169C933.585 248.952 933.024 248.72 932.611 248.307C932.198 247.894 931.966 247.334 931.966 246.75V194.91C931.966 194.621 932.023 194.334 932.134 194.067C932.244 193.8 932.407 193.557 932.611 193.352C932.816 193.148 933.059 192.986 933.326 192.875C933.593 192.764 933.88 192.707 934.169 192.707H1014.13C1014.42 192.707 1014.71 192.764 1014.97 192.875C1015.24 192.986 1015.48 193.148 1015.69 193.352C1015.89 193.557 1016.06 193.8 1016.17 194.067C1016.28 194.334 1016.33 194.621 1016.33 194.91V202.081H997.585Z" fill="black"/>
<path d="M1002.27 225.517C1004.86 225.517 1006.96 223.418 1006.96 220.83C1006.96 218.241 1004.86 216.143 1002.27 216.143C999.684 216.143 997.586 218.241 997.586 220.83C997.586 223.418 999.684 225.517 1002.27 225.517Z" fill="black"/>
</g>
<g opacity="0.04">
<path d="M1226.72 495.971H1219.55V472.535C1219.55 471.768 1219.37 471.011 1219.01 470.333C1218.65 469.655 1218.13 469.075 1217.49 468.645C1216.86 468.218 1216.13 467.951 1215.37 467.87C1214.61 467.788 1213.84 467.893 1213.13 468.176L1142.83 496.299C1142.19 496.579 1141.62 496.976 1141.14 497.471C1139.35 498.478 1137.85 499.94 1136.81 501.709C1135.76 503.479 1135.2 505.493 1135.19 507.548V559.387C1135.2 562.454 1136.42 565.392 1138.59 567.56C1140.76 569.729 1143.7 570.952 1146.76 570.965H1226.72C1229.79 570.952 1232.73 569.729 1234.9 567.56C1237.07 565.392 1238.29 562.454 1238.3 559.387V507.548C1238.29 504.481 1237.07 501.544 1234.9 499.375C1232.73 497.207 1229.79 495.983 1226.72 495.971ZM1210.18 495.971H1168.89L1210.18 479.472V495.971ZM1228.93 542.842H1210.18C1207.69 542.842 1205.31 541.854 1203.55 540.096C1201.79 538.338 1200.81 535.954 1200.81 533.468C1200.81 530.982 1201.79 528.597 1203.55 526.839C1205.31 525.081 1207.69 524.094 1210.18 524.094H1228.93V542.842ZM1210.18 514.719C1205.21 514.719 1200.44 516.695 1196.92 520.211C1193.41 523.727 1191.43 528.495 1191.43 533.468C1191.43 538.44 1193.41 543.209 1196.92 546.725C1200.44 550.241 1205.21 552.216 1210.18 552.216H1228.93V559.387C1228.93 559.972 1228.7 560.532 1228.28 560.945C1227.87 561.358 1227.31 561.59 1226.72 561.59H1146.76C1146.18 561.59 1145.62 561.358 1145.2 560.945C1144.79 560.532 1144.56 559.972 1144.56 559.387V507.548C1144.56 507.259 1144.62 506.972 1144.73 506.705C1144.84 506.438 1145 506.195 1145.2 505.99C1145.41 505.786 1145.65 505.623 1145.92 505.513C1146.19 505.402 1146.47 505.345 1146.76 505.345H1226.72C1227.01 505.345 1227.3 505.402 1227.57 505.513C1227.84 505.623 1228.08 505.786 1228.28 505.99C1228.49 506.195 1228.65 506.438 1228.76 506.705C1228.87 506.972 1228.93 507.259 1228.93 507.548V514.719H1210.18Z" fill="black"/>
<path d="M1214.87 538.155C1217.46 538.155 1219.55 536.056 1219.55 533.468C1219.55 530.879 1217.46 528.781 1214.87 528.781C1212.28 528.781 1210.18 530.879 1210.18 533.468C1210.18 536.056 1212.28 538.155 1214.87 538.155Z" fill="black"/>
</g>
<g opacity="0.04">
<path d="M1251.74 753.584H1244.56V730.149C1244.57 729.381 1244.38 728.625 1244.02 727.946C1243.66 727.268 1243.14 726.688 1242.5 726.259C1241.87 725.831 1241.14 725.565 1240.38 725.483C1239.62 725.401 1238.85 725.507 1238.14 725.79L1167.84 753.912C1167.2 754.192 1166.63 754.59 1166.15 755.084C1164.36 756.091 1162.86 757.553 1161.82 759.323C1160.77 761.092 1160.21 763.106 1160.2 765.162V817.001C1160.21 820.068 1161.43 823.005 1163.6 825.174C1165.77 827.342 1168.71 828.566 1171.77 828.578H1251.74C1254.8 828.566 1257.74 827.342 1259.91 825.174C1262.08 823.005 1263.3 820.068 1263.31 817.001V765.162C1263.3 762.095 1262.08 759.157 1259.91 756.989C1257.74 754.82 1254.8 753.597 1251.74 753.584ZM1235.19 753.584H1193.9L1235.19 737.086V753.584ZM1253.94 800.455H1235.19C1232.7 800.455 1230.32 799.468 1228.56 797.71C1226.8 795.952 1225.82 793.567 1225.82 791.081C1225.82 788.595 1226.8 786.211 1228.56 784.453C1230.32 782.695 1232.7 781.707 1235.19 781.707H1253.94V800.455ZM1235.19 772.333C1230.22 772.333 1225.45 774.308 1221.93 777.824C1218.42 781.34 1216.44 786.109 1216.44 791.081C1216.44 796.054 1218.42 800.822 1221.93 804.338C1225.45 807.854 1230.22 809.83 1235.19 809.83H1253.94V817.001C1253.94 817.585 1253.71 818.145 1253.29 818.559C1252.88 818.972 1252.32 819.204 1251.74 819.204H1171.77C1171.19 819.204 1170.63 818.972 1170.22 818.559C1169.8 818.145 1169.57 817.585 1169.57 817.001V765.162C1169.57 764.872 1169.63 764.586 1169.74 764.318C1169.85 764.051 1170.01 763.808 1170.22 763.604C1170.42 763.399 1170.66 763.237 1170.93 763.126C1171.2 763.016 1171.48 762.959 1171.77 762.959H1251.74C1252.03 762.959 1252.31 763.016 1252.58 763.126C1252.85 763.237 1253.09 763.399 1253.29 763.604C1253.5 763.808 1253.66 764.051 1253.77 764.318C1253.88 764.586 1253.94 764.872 1253.94 765.162V772.333H1235.19Z" fill="black"/>
<path d="M1239.88 795.768C1242.47 795.768 1244.56 793.67 1244.56 791.081C1244.56 788.493 1242.47 786.394 1239.88 786.394C1237.29 786.394 1235.19 788.493 1235.19 791.081C1235.19 793.67 1237.29 795.768 1239.88 795.768Z" fill="black"/>
</g>
<g opacity="0.04" clip-path="url(#clip0_8_331)">
<path d="M1101.08 9.83133C1109.65 9.82724 1117.97 12.7639 1124.65 18.1515C1131.32 23.5392 1135.95 31.0521 1137.75 39.4373C1139.56 47.8225 1138.43 56.5731 1134.57 64.2296C1130.7 71.8861 1124.32 77.9858 1116.51 81.5112C1114.01 87.0369 1110.2 91.8739 1105.42 95.6074C1100.65 99.3409 1095.03 101.859 1089.07 102.947C1083.1 104.035 1076.96 103.659 1071.17 101.852C1065.38 100.045 1060.12 96.8606 1055.83 92.5723C1051.54 88.2839 1048.35 83.0194 1046.55 77.2302C1044.74 71.441 1044.36 65.2999 1045.45 59.3336C1046.54 53.3672 1049.06 47.7537 1052.79 42.9745C1056.53 38.1953 1061.36 34.3929 1066.89 31.8935C1069.86 25.317 1074.67 19.7375 1080.73 15.8243C1086.79 11.9111 1093.86 9.83022 1101.08 9.83133ZM1087.01 42.6411H1077.64V47.3282C1074.59 47.3208 1071.66 48.4998 1069.47 50.6154C1067.28 52.7311 1066 55.6169 1065.9 58.6614C1065.8 61.7058 1066.89 64.6696 1068.94 66.9244C1070.99 69.1792 1073.83 70.5479 1076.87 70.7403L1077.64 70.7637H1087.01L1087.44 70.8012C1087.98 70.899 1088.47 71.1835 1088.82 71.605C1089.17 72.0265 1089.36 72.5581 1089.36 73.1073C1089.36 73.6564 1089.17 74.1881 1088.82 74.6096C1088.47 75.031 1087.98 75.3155 1087.44 75.4133L1087.01 75.4508H1068.27V84.825H1077.64V89.5121H1087.01V84.825C1090.06 84.8324 1092.99 83.6534 1095.18 81.5378C1097.37 79.4222 1098.65 76.5363 1098.75 73.4918C1098.85 70.4474 1097.76 67.4836 1095.72 65.2288C1093.67 62.974 1090.82 61.6054 1087.78 61.4129L1087.01 61.3895H1077.64L1077.22 61.352C1076.68 61.2542 1076.19 60.9697 1075.84 60.5482C1075.49 60.1268 1075.29 59.5951 1075.29 59.0459C1075.29 58.4968 1075.49 57.9651 1075.84 57.5437C1076.19 57.1222 1076.68 56.8377 1077.22 56.7399L1077.64 56.7024H1096.39V47.3282H1087.01V42.6411ZM1101.08 19.2055C1097.1 19.2009 1093.18 20.0396 1089.55 21.6661C1085.93 23.2926 1082.69 25.6699 1080.06 28.6407C1085.36 28.3191 1090.66 29.1258 1095.62 31.0074C1100.59 32.8891 1105.09 35.8028 1108.85 39.5559C1112.6 43.3091 1115.51 47.8161 1117.39 52.779C1119.27 57.7419 1120.08 63.0475 1119.76 68.3452C1124.02 64.5562 1127.03 59.5613 1128.39 54.0228C1129.74 48.4844 1129.39 42.6641 1127.36 37.334C1125.33 32.0038 1121.73 27.4157 1117.04 24.178C1112.35 20.9404 1106.78 19.2062 1101.08 19.2055Z" fill="black"/>
</g>
<g opacity="0.04" clip-path="url(#clip1_8_331)">
<path d="M493.308 522.557C501.885 522.553 510.204 525.49 516.878 530.878C523.552 536.265 528.178 543.778 529.983 552.163C531.788 560.548 530.663 569.299 526.797 576.956C522.931 584.612 516.557 590.712 508.737 594.237C506.238 599.763 502.436 604.6 497.657 608.333C492.877 612.067 487.264 614.585 481.297 615.673C475.331 616.761 469.19 616.385 463.401 614.578C457.612 612.771 452.347 609.587 448.059 605.298C443.77 601.01 440.586 595.745 438.779 589.956C436.972 584.167 436.596 578.026 437.684 572.06C438.772 566.093 441.29 560.48 445.024 555.7C448.757 550.921 453.594 547.119 459.12 544.62C462.092 538.043 466.898 532.464 472.962 528.55C479.026 524.637 486.091 522.556 493.308 522.557ZM479.246 555.367H469.872V560.054C466.826 560.047 463.897 561.226 461.705 563.341C459.514 565.457 458.232 568.343 458.132 571.387C458.032 574.432 459.122 577.396 461.17 579.65C463.218 581.905 466.063 583.274 469.103 583.466L469.872 583.49H479.246L479.668 583.527C480.208 583.625 480.697 583.91 481.049 584.331C481.401 584.752 481.594 585.284 481.594 585.833C481.594 586.382 481.401 586.914 481.049 587.336C480.697 587.757 480.208 588.041 479.668 588.139L479.246 588.177H460.498V597.551H469.872V602.238H479.246V597.551C482.292 597.558 485.222 596.379 487.413 594.264C489.605 592.148 490.886 589.262 490.986 586.218C491.086 583.173 489.997 580.21 487.949 577.955C485.901 575.7 483.055 574.331 480.015 574.139L479.246 574.115H469.872L469.45 574.078C468.91 573.98 468.421 573.696 468.069 573.274C467.717 572.853 467.524 572.321 467.524 571.772C467.524 571.223 467.717 570.691 468.069 570.27C468.421 569.848 468.91 569.564 469.45 569.466L469.872 569.428H488.62V560.054H479.246V555.367ZM493.308 531.932C489.336 531.927 485.409 532.766 481.786 534.392C478.163 536.019 474.926 538.396 472.291 541.367C477.588 541.045 482.894 541.852 487.856 543.733C492.819 545.615 497.326 548.529 501.079 552.282C504.831 556.035 507.744 560.542 509.625 565.505C511.507 570.468 512.313 575.774 511.99 581.071C516.252 577.282 519.261 572.287 520.618 566.749C521.976 561.21 521.618 555.39 519.591 550.06C517.565 544.73 513.966 540.142 509.272 536.904C504.577 533.666 499.01 531.932 493.308 531.932Z" fill="black"/>
</g>
<g opacity="0.04" clip-path="url(#clip2_8_331)">
<path d="M936.002 762.663C944.58 762.659 952.899 765.596 959.573 770.984C966.247 776.371 970.872 783.884 972.677 792.269C974.482 800.654 973.358 809.405 969.492 817.062C965.626 824.718 959.252 830.818 951.432 834.343C948.933 839.869 945.131 844.706 940.351 848.439C935.572 852.173 929.959 854.691 923.992 855.779C918.026 856.867 911.885 856.491 906.096 854.684C900.306 852.877 895.042 849.693 890.754 845.404C886.465 841.116 883.281 835.851 881.474 830.062C879.667 824.273 879.291 818.132 880.379 812.166C881.466 806.199 883.985 800.586 887.718 795.807C891.452 791.027 896.289 787.225 901.815 784.726C904.787 778.149 909.593 772.57 915.657 768.656C921.721 764.743 928.785 762.662 936.002 762.663ZM921.941 795.473H912.567V800.16C909.521 800.153 906.591 801.332 904.4 803.447C902.208 805.563 900.927 808.449 900.827 811.493C900.727 814.538 901.816 817.502 903.864 819.756C905.913 822.011 908.758 823.38 911.798 823.572L912.567 823.596H921.941L922.363 823.633C922.903 823.731 923.392 824.016 923.744 824.437C924.096 824.858 924.289 825.39 924.289 825.939C924.289 826.488 924.096 827.02 923.744 827.442C923.392 827.863 922.903 828.147 922.363 828.245L921.941 828.283H903.193V837.657H912.567V842.344H921.941V837.657C924.987 837.664 927.916 836.485 930.108 834.37C932.299 832.254 933.581 829.368 933.681 826.324C933.781 823.279 932.691 820.316 930.643 818.061C928.595 815.806 925.75 814.437 922.71 814.245L921.941 814.222H912.567L912.145 814.184C911.605 814.086 911.116 813.802 910.764 813.38C910.412 812.959 910.219 812.427 910.219 811.878C910.219 811.329 910.412 810.797 910.764 810.376C911.116 809.954 911.605 809.67 912.145 809.572L912.567 809.534H931.315V800.16H921.941V795.473ZM936.002 772.038C932.031 772.033 928.104 772.872 924.481 774.498C920.858 776.125 917.621 778.502 914.985 781.473C920.283 781.151 925.589 781.958 930.551 783.839C935.514 785.721 940.021 788.635 943.773 792.388C947.526 796.141 950.439 800.648 952.32 805.611C954.201 810.574 955.007 815.88 954.685 821.177C958.947 817.388 961.956 812.393 963.313 806.855C964.671 801.316 964.312 795.496 962.286 790.166C960.259 784.836 956.66 780.248 951.966 777.01C947.272 773.772 941.705 772.038 936.002 772.038Z" fill="black"/>
</g>
<g opacity="0.04">
<path d="M71.874 90.83V93.1553V134.754H95.5384V128.886L95.639 128.922C101.825 130.979 110.671 132.808 119.413 135.934L120.063 136.154L120.704 136.008C123.452 135.368 130.855 133.085 139.681 130.249C148.508 127.414 158.578 124.064 166.065 121.479C169.648 120.239 171.574 116.231 170.257 112.673C168.874 109.032 164.86 107.395 161.442 108.444C158.595 109.316 145.233 113.444 136.459 116.033C136.542 113.53 137.2 110.824 135.168 109.231L135.058 109.121L134.921 109.066C125.06 103.183 124.224 102.42 110.36 95.0511L109.71 94.7305L108.995 94.8038C104.228 95.3152 96.1275 96.6561 95.5384 96.7538V90.8305L71.874 90.83ZM76.5611 95.5176H90.8788V130.067H76.5611V95.5176ZM108.785 99.5636C121.449 106.309 122.904 107.338 132.266 112.92C133.785 114.112 134.189 115.575 133.273 116.893C132.781 117.601 132.266 117.881 131.552 118C130.838 118.128 129.852 117.964 128.723 117.469C124.507 115.52 122.213 114.277 117.555 111.665L115.514 110.521L113.225 114.604L115.266 115.748C119.954 118.377 122.431 119.748 126.792 121.762H126.828C128.61 122.556 130.491 122.935 132.339 122.622C133.107 122.493 133.608 121.711 134.308 121.331L134.381 121.542L136.633 120.901C145.418 118.328 159.876 113.853 162.806 112.955V112.918C163.913 112.579 165.409 113.138 165.854 114.309C166.269 115.484 165.728 116.621 164.527 117.037C157.09 119.604 147.041 122.945 138.244 125.77C129.668 128.525 122.411 130.723 120.127 131.281C111.329 128.226 102.585 126.299 97.1129 124.479L95.5384 123.975V101.492L95.932 101.437C95.932 101.437 104.022 100.122 108.785 99.5636Z" fill="black"/>
<path d="M140.676 37.2767C124.677 37.2767 111.641 50.3129 111.641 66.3107C111.641 82.3086 124.677 95.309 140.676 95.309C156.674 95.309 169.675 82.3086 169.675 66.3107C169.675 50.3129 156.674 37.2767 140.676 37.2767ZM140.676 41.9666C154.141 41.9666 164.985 52.8459 164.985 66.3107C164.985 79.7756 154.141 90.6191 140.676 90.6191C127.211 90.6191 116.331 79.7756 116.331 66.3107C116.331 52.8459 127.211 41.9666 140.676 41.9666Z" fill="black"/>
<path d="M138.3 50.6326V53.0038V54.6976H131.919V68.6395H144.717V73.208H134.281H131.919V77.895H134.281H138.3V79.5793V81.941H142.987V79.5793V77.895H149.404V63.9525H136.606V59.3846H147.042H149.404V54.6976H147.042H142.987V53.0038V50.6326H138.3Z" fill="black"/>
</g>
<g opacity="0.04">
<path d="M6.84473 413.472V415.798V457.396H30.5091V451.528L30.6097 451.564C36.7953 453.621 45.6414 455.45 54.384 458.577L55.034 458.797L55.6748 458.65C58.4223 458.01 65.8253 455.727 74.6521 452.892C83.4789 450.056 93.5484 446.706 101.035 444.122C104.618 442.881 106.545 438.873 105.228 435.315C103.844 431.674 99.8307 430.037 96.4123 431.086C93.5653 431.958 80.2032 436.086 71.4297 438.675C71.5124 436.173 72.1703 433.466 70.1389 431.873L70.0291 431.763L69.8918 431.708C60.0303 425.825 59.1947 425.062 45.3302 417.693L44.6802 417.373L43.9662 417.446C39.1984 417.957 31.0982 419.298 30.5091 419.396V413.473L6.84473 413.472ZM11.5318 418.16H25.8495V452.709H11.5318V418.16ZM43.7557 422.206C56.4198 428.951 57.8743 429.981 67.237 435.563C68.7555 436.754 69.1599 438.218 68.244 439.535C67.7522 440.243 67.2372 440.523 66.5229 440.642C65.8087 440.771 64.8225 440.606 63.6942 440.111C59.4778 438.162 57.1838 436.92 52.5257 434.307L50.4843 433.163L48.1956 437.246L50.2371 438.39C54.9252 441.019 57.4013 442.39 61.7626 444.404H61.7991C63.5809 445.198 65.4612 445.577 67.3101 445.264C68.0774 445.136 68.5786 444.353 69.2783 443.974L69.3516 444.184L71.6036 443.543C80.3886 440.97 94.8467 436.495 97.7764 435.597V435.56C98.8837 435.221 100.38 435.78 100.825 436.951C101.239 438.126 100.699 439.263 99.4974 439.679C92.0612 442.246 82.0116 445.587 73.2148 448.413C64.6386 451.168 57.3812 453.365 55.0981 453.924C46.2995 450.868 37.5559 448.942 32.0837 447.122L30.5091 446.618V424.135L30.9027 424.079C30.9027 424.079 38.9928 422.765 43.7557 422.206Z" fill="black"/>
<path d="M75.6475 359.919C59.6491 359.919 46.6123 372.955 46.6123 388.953C46.6123 404.951 59.6491 417.951 75.6475 417.951C91.6458 417.951 104.647 404.951 104.647 388.953C104.647 372.955 91.6458 359.919 75.6475 359.919ZM75.6475 364.609C89.1127 364.609 99.9568 375.488 99.9568 388.953C99.9568 402.418 89.1127 413.261 75.6475 413.261C62.1822 413.261 51.3023 402.418 51.3023 388.953C51.3023 375.488 62.1822 364.609 75.6475 364.609Z" fill="black"/>
<path d="M73.2703 373.275V375.646V377.34H66.8896V391.282H79.6876V395.85H69.2515H66.8896V400.537H69.2515H73.2703V402.222V404.583H77.9574V402.222V400.537H84.3747V386.595H71.5768V382.027H82.0129H84.3747V377.34H82.0129H77.9574V375.646V373.275H73.2703Z" fill="black"/>
</g>
<g opacity="0.04">
<path d="M61.8672 816.15V818.475V860.073H85.5316V854.205L85.6322 854.242C91.8178 856.299 100.664 858.128 109.406 861.254L110.056 861.474L110.697 861.327C113.445 860.688 120.848 858.405 129.675 855.569C138.501 852.733 148.571 849.384 156.058 846.799C159.641 845.558 161.567 841.551 160.251 837.992C158.867 834.352 154.853 832.714 151.435 833.763C148.588 834.636 135.226 838.763 126.452 841.352C126.535 838.85 127.193 836.144 125.161 834.55L125.052 834.441L124.914 834.385C115.053 828.502 114.217 827.74 100.353 820.371L99.7027 820.05L98.9887 820.123C94.2209 820.635 86.1207 821.976 85.5315 822.073V816.15L61.8672 816.15ZM66.5543 820.837H80.8719V855.386H66.5543V820.837ZM98.7781 824.883C111.442 831.628 112.897 832.658 122.259 838.24C123.778 839.432 124.182 840.895 123.266 842.213C122.775 842.92 122.26 843.201 121.545 843.32C120.831 843.448 119.845 843.283 118.717 842.788C114.5 840.84 112.206 839.597 107.548 836.984L105.507 835.84L103.218 839.923L105.26 841.067C109.948 843.697 112.424 845.068 116.785 847.082H116.822C118.603 847.875 120.484 848.255 122.333 847.941C123.1 847.813 123.601 847.03 124.301 846.651L124.374 846.862L126.626 846.22C135.411 843.648 149.869 839.172 152.799 838.274V838.237C153.906 837.898 155.402 838.457 155.847 839.628C156.262 840.803 155.721 841.941 154.52 842.357C147.084 844.924 137.034 848.264 128.237 851.09C119.661 853.845 112.404 856.043 110.121 856.601C101.322 853.546 92.5784 851.619 87.1061 849.799L85.5315 849.295V826.812L85.9252 826.757C85.9252 826.757 94.0152 825.442 98.7781 824.883Z" fill="black"/>
<path d="M130.67 762.596C114.672 762.596 101.635 775.633 101.635 791.631C101.635 807.628 114.672 820.629 130.67 820.629C146.668 820.629 159.669 807.628 159.669 791.631C159.669 775.633 146.668 762.596 130.67 762.596ZM130.67 767.286C144.135 767.286 154.979 778.166 154.979 791.631C154.979 805.095 144.135 815.939 130.67 815.939C117.205 815.939 106.325 805.095 106.325 791.631C106.325 778.166 117.205 767.286 130.67 767.286Z" fill="black"/>
<path d="M128.293 775.952V778.324V780.017H121.912V793.959H134.71V798.528H124.274H121.912V803.215H124.274H128.293V804.899V807.261H132.98V804.899V803.215H139.397V789.272H126.599V784.704H137.035H139.397V780.017H137.035H132.98V778.324V775.952H128.293Z" fill="black"/>
</g>
<g opacity="0.04">
<path d="M742.787 250.939V253.274V305.134H732.735V258.629V256.286H728.076V258.629V305.134H718.061V265.623V263.243H713.374V265.623V305.134H702.342H700.017V309.858H702.342H751.136H753.461V305.134H751.136H747.447V253.274V250.939H742.787Z" fill="black"/>
<path d="M728.387 223.732V228.447H730.758H737.047L722.83 242.893L714.829 234.782L696.85 254.153L695.861 255.215C691.684 252.518 686.732 250.939 681.415 250.939C666.623 250.939 654.602 263.048 654.602 277.927C654.602 292.805 666.623 304.924 681.415 304.924C696.207 304.924 708.256 292.805 708.256 277.927C708.256 270.1 704.902 263.062 699.587 258.126L700.292 257.366L714.966 241.565L722.83 249.539L740.288 231.797V238.169V240.512H744.975V238.169V223.732H730.758H728.387ZM681.415 255.654C693.68 255.654 703.596 265.588 703.596 277.927C703.596 290.266 693.68 300.209 681.415 300.209C669.15 300.209 659.261 290.266 659.261 277.927C659.261 265.588 669.15 255.654 681.415 255.654Z" fill="black"/>
<path d="M679.072 263.289V265.651V267.024H673.204V280.27H684.958V284.124H675.575H673.204V288.839H675.575H679.072V290.203V292.574H683.778V290.203V288.839H689.618V275.556H677.9V271.738H687.293H689.618V267.024H687.293H683.778V265.651V263.289H679.072Z" fill="black"/>
</g>
<g opacity="0.04">
<path d="M1200.49 270.948V273.283V325.143H1190.44V278.638V276.294H1185.78V278.638V325.143H1175.76V285.632V283.252H1171.08V285.632V325.143H1160.04H1157.72V329.867H1160.04H1208.84H1211.16V325.143H1208.84H1205.15V273.283V270.948H1200.49Z" fill="black"/>
<path d="M1186.09 243.741V248.456H1188.46H1194.75L1180.53 262.901L1172.53 254.791L1154.55 274.162L1153.56 275.223C1149.39 272.526 1144.43 270.948 1139.12 270.948C1124.33 270.948 1112.3 283.057 1112.3 297.936C1112.3 312.814 1124.33 324.932 1139.12 324.932C1153.91 324.932 1165.96 312.814 1165.96 297.936C1165.96 290.108 1162.6 283.071 1157.29 278.135L1157.99 277.375L1172.67 261.574L1180.53 269.548L1197.99 251.806V258.178V260.521H1202.68V258.178V243.741H1188.46H1186.09ZM1139.12 275.663C1151.38 275.663 1161.3 285.597 1161.3 297.936C1161.3 310.275 1151.38 320.218 1139.12 320.218C1126.85 320.218 1116.96 310.275 1116.96 297.936C1116.96 285.597 1126.85 275.663 1139.12 275.663Z" fill="black"/>
<path d="M1136.77 283.298V285.66V287.033H1130.91V300.279H1142.66V304.133H1133.28H1130.91V308.848H1133.28H1136.77V310.212V312.583H1141.48V310.212V308.848H1147.32V295.565H1135.6V291.747H1144.99H1147.32V287.033H1144.99H1141.48V285.66V283.298H1136.77Z" fill="black"/>
</g>
<g opacity="0.04">
<path d="M477.67 761.164V763.499V815.359H467.619V768.854V766.511H462.959V768.854V815.359H452.944V775.848V773.468H448.257V775.848V815.359H437.226H434.9V820.083H437.226H486.019H488.344V815.359H486.019H482.33V763.499V761.164H477.67Z" fill="black"/>
<path d="M463.27 733.957V738.672H465.641H471.93L457.713 753.118L449.712 745.007L431.732 764.378L430.744 765.439C426.567 762.743 421.615 761.164 416.298 761.164C401.506 761.164 389.484 773.273 389.484 788.152C389.484 803.03 401.506 815.148 416.298 815.148C431.09 815.148 443.139 803.03 443.139 788.152C443.139 780.325 439.785 773.287 434.47 768.351L435.174 767.591L449.849 751.79L457.713 759.764L475.171 742.022V748.394V750.737H479.858V748.394V733.957H465.641H463.27ZM416.298 765.879C428.563 765.879 438.479 775.813 438.479 788.152C438.479 800.491 428.563 810.434 416.298 810.434C404.033 810.434 394.144 800.491 394.144 788.152C394.144 775.813 404.033 765.879 416.298 765.879Z" fill="black"/>
<path d="M413.954 773.514V775.876V777.249H408.086V790.495H419.841V794.349H410.457H408.086V799.064H410.457H413.954V800.428V802.799H418.66V800.428V799.064H424.5V785.781H412.783V781.963H422.175H424.5V777.249H422.175H418.66V775.876V773.514H413.954Z" fill="black"/>
</g>
<g opacity="0.04">
<path d="M601.628 48.5173L584.234 49.7165L584.564 54.3853L593.315 53.7903L573.944 73.4816L561.375 60.7111L541.309 81.1165L544.65 84.4029L561.375 67.403L573.944 80.1735L596.519 57.2141L596.089 66.1305L600.776 66.3502L601.628 48.5173Z" fill="black"/>
<path d="M522.028 35.9481V108.397H561.85C560.774 111.529 559.694 114.66 558.61 117.789H549.519V122.476H593.424V117.789H584.334C583.25 114.66 582.17 111.529 581.093 108.397H620.915V35.9481H522.028ZM526.715 40.6352H616.228V90.0421H526.715V40.6352ZM526.715 94.7292H616.228V103.71H526.715V94.7292ZM566.812 108.397H576.131C577.207 111.529 578.289 114.659 579.372 117.789H563.571C564.654 114.659 565.736 111.529 566.812 108.397Z" fill="black"/>
</g>
<g opacity="0.04">
<path d="M541.601 368.658L524.207 369.858L524.537 374.526L533.288 373.931L513.918 393.623L501.348 380.852L481.282 401.258L484.623 404.544L501.348 387.544L513.918 400.315L536.493 377.355L536.062 386.272L540.749 386.491L541.601 368.658Z" fill="black"/>
<path d="M462.001 356.089V428.538H501.824C500.747 431.67 499.667 434.801 498.583 437.931H489.492V442.618H533.397V437.931H524.307C523.223 434.801 522.143 431.67 521.066 428.538H560.888V356.089H462.001ZM466.689 360.776H556.201V410.183H466.689V360.776ZM466.689 414.87H556.201V423.851H466.689V414.87ZM506.785 428.538H516.105C517.18 431.67 518.262 434.801 519.345 437.931H503.545C504.627 434.801 505.71 431.67 506.785 428.538Z" fill="black"/>
</g>
<g opacity="0.04">
<path d="M866.744 508.72L849.35 509.919L849.68 514.588L858.432 513.993L839.061 533.684L826.491 520.914L806.425 541.319L809.766 544.606L826.491 527.606L839.061 540.376L861.636 517.417L861.205 526.333L865.892 526.553L866.744 508.72Z" fill="black"/>
<path d="M787.145 496.151V568.6H826.967C825.89 571.732 824.81 574.863 823.726 577.992H814.636V582.679H858.541V577.992H849.451C848.367 574.863 847.287 571.732 846.21 568.6H886.032V496.151H787.145ZM791.832 500.838H881.345V550.245H791.832V500.838ZM791.832 554.932H881.345V563.913H791.832V554.932ZM831.929 568.6H841.248C842.324 571.732 843.406 574.862 844.489 577.992H828.688C829.771 574.862 830.853 571.732 831.929 568.6Z" fill="black"/>
</g>
</g>
<defs>
<clipPath id="clip0_8_331">
<rect width="112.491" height="112.491" fill="white" transform="translate(1035.46 0.4571)"/>
</clipPath>
<clipPath id="clip1_8_331">
<rect width="112.491" height="112.491" fill="white" transform="translate(427.688 513.183)"/>
</clipPath>
<clipPath id="clip2_8_331">
<rect width="112.491" height="112.491" fill="white" transform="translate(870.383 753.289)"/>
</clipPath>
</defs>
</svg>
